<svg width="363" height="215" viewBox="0 0 363 215" fill="none" xmlns="http://www.w3.org/2000/svg">
<path fill-rule="evenodd" clip-rule="evenodd" d="M122.551 135.766H131.683C134.518 135.766 136.565 135.291 137.982 134.184C139.242 133.235 139.871 131.496 139.871 129.281C139.871 127.067 139.242 125.486 137.982 124.379C136.722 123.43 134.518 122.797 131.683 122.797H122.551V135.766ZM130.581 145.097H122.551V163.6H109.324V112.992H133.888C140.186 112.992 144.91 114.415 148.374 117.104C151.681 119.792 153.413 123.904 153.413 129.123C153.413 132.761 152.626 135.924 150.894 138.296C149.162 140.668 146.642 142.566 143.336 143.673L156.562 163.6H141.603L130.581 145.097Z" fill="#f0f0f0"/>
<path fill-rule="evenodd" clip-rule="evenodd" d="M203.801 153.32V163.6H162.861V112.992H202.856V123.113H176.088V133.393H197.188V143.041H176.088V153.32H203.801Z" fill="#f0f0f0"/>
<path fill-rule="evenodd" clip-rule="evenodd" d="M255.764 136.24V164.391H246.631L246.316 158.223C243.481 162.81 238.6 165.182 231.987 165.182C227.42 165.182 223.326 164.075 219.862 162.019C216.398 159.963 213.564 156.958 211.674 152.846C209.627 148.892 208.682 143.99 208.682 138.296C208.682 132.761 209.627 127.858 211.674 123.904C213.721 119.792 216.555 116.787 220.335 114.573C224.114 112.359 228.523 111.252 233.719 111.252C239.387 111.252 244.111 112.359 247.576 114.415C251.04 116.471 253.874 119.95 255.921 124.695L243.796 129.598C243.167 127.067 242.064 125.169 240.332 123.904C238.6 122.639 236.553 122.006 234.034 122.006C230.255 122.006 227.263 123.43 225.216 126.118C223.169 128.807 222.067 132.919 222.067 138.138C222.067 149.05 226.161 154.586 234.349 154.586C237.498 154.586 240.017 153.795 241.907 152.372C243.796 150.948 244.741 148.734 244.741 146.046V145.255H232.302V136.082H255.764V136.24Z" fill="#f0f0f0"/>
<path fill-rule="evenodd" clip-rule="evenodd" d="M306.151 153.32V163.6H265.211V112.992H305.206V123.113H278.595V133.393H299.695V143.041H278.595V153.32H306.151Z" fill="#f0f0f0"/>
<path fill-rule="evenodd" clip-rule="evenodd" d="M361.263 163.6H346.461L330.715 136.24L326.936 128.491L327.251 137.98V163.6H315.599V112.992H330.243L345.989 140.352L349.768 147.943H349.926L349.611 138.454V112.992H361.263V163.6Z" fill="#f0f0f0"/>
<path d="M127.589 192.067H112.945V199.658H124.44V203.296H113.103V214.525H108.851V188.43H127.589V192.067Z" fill="#f0f0f0"/>
<path d="M143.966 188.114C146.485 188.114 148.689 188.588 150.579 189.696C152.469 190.803 153.886 192.384 154.831 194.282C155.775 196.338 156.405 198.71 156.405 201.399C156.405 204.087 155.933 206.618 154.831 208.516C153.886 210.572 152.469 211.995 150.579 213.102C148.689 214.209 146.642 214.684 143.966 214.684C141.446 214.684 139.242 214.209 137.51 213.102C135.62 211.995 134.203 210.413 133.258 208.516C132.313 206.46 131.684 204.087 131.684 201.399C131.684 198.71 132.156 196.18 133.258 194.282C134.203 192.226 135.62 190.803 137.51 189.696C139.242 188.588 141.446 188.114 143.966 188.114ZM143.966 191.752C142.391 191.752 140.974 192.068 139.714 192.859C138.612 193.649 137.667 194.756 137.037 196.18C136.407 197.603 136.093 199.343 136.093 201.557C136.093 203.613 136.407 205.353 137.037 206.776C137.667 208.199 138.612 209.306 139.714 210.097C140.816 210.888 142.234 211.204 143.966 211.204C145.698 211.204 146.957 210.888 148.217 210.097C149.319 209.306 150.264 208.199 150.894 206.776C151.524 205.353 151.839 203.613 151.839 201.557C151.839 199.501 151.524 197.761 150.894 196.18C150.264 194.756 149.319 193.649 148.217 192.859C146.957 192.226 145.54 191.752 143.966 191.752Z" fill="#f0f0f0"/>
<path d="M183.961 188.43V204.562C183.961 208.041 183.016 210.572 181.284 212.311C179.395 214.051 176.875 215 173.411 215C169.947 215 167.427 214.209 165.538 212.311C163.648 210.572 162.861 208.041 162.861 204.562V188.43H166.955V203.929C166.955 206.302 167.427 208.199 168.53 209.465C169.632 210.73 171.207 211.204 173.254 211.204C175.458 211.204 177.033 210.572 178.135 209.465C179.237 208.199 179.71 206.46 179.71 203.929V188.43H183.961Z" fill="#f0f0f0"/>
<path d="M213.091 188.43V214.526H208.052L197.975 198.078L195.455 193.491L195.613 197.761V214.684H191.676V188.43H196.715L206.635 204.878L209.155 209.623L208.997 205.353V188.43H213.091Z" fill="#f0f0f0"/>
<path d="M230.727 188.43C234.821 188.43 237.97 189.538 240.175 191.752C242.379 193.966 243.639 197.287 243.639 201.399C243.639 205.511 242.536 208.832 240.175 211.046C237.813 213.26 234.663 214.367 230.727 214.367H221.594V188.43H230.727ZM230.727 211.046C233.561 211.046 235.608 210.255 237.025 208.516C238.442 206.934 239.23 204.562 239.23 201.557C239.23 198.552 238.442 196.18 237.025 194.598C235.608 193.017 233.404 192.068 230.727 192.068H225.688V211.046H230.727Z" fill="#f0f0f0"/>
<path d="M246.631 214.526L256.393 188.43H261.432L271.195 214.526H266.786L260.172 195.864L258.913 192.068H258.755L257.653 195.705L250.882 214.526H246.631ZM251.827 207.725V204.246H265.841V207.725H251.827Z" fill="#f0f0f0"/>
<path d="M292.452 188.43V192.068H283.477V214.526H279.225V192.068H270.25V188.43H292.452Z" fill="#f0f0f0"/>
<path d="M302.372 188.43V214.526H298.121V188.43H302.372Z" fill="#f0f0f0"/>
<path d="M321.583 188.114C324.102 188.114 326.306 188.588 328.196 189.696C330.086 190.803 331.503 192.384 332.447 194.282C333.392 196.338 334.022 198.71 334.022 201.399C334.022 204.087 333.55 206.618 332.447 208.516C331.503 210.572 330.086 211.995 328.196 213.102C326.306 214.209 324.259 214.684 321.583 214.684C319.063 214.684 316.859 214.209 315.127 213.102C313.237 211.995 311.82 210.413 310.875 208.516C309.93 206.46 309.301 204.087 309.301 201.399C309.301 198.71 309.773 196.18 310.875 194.282C311.82 192.226 313.237 190.803 315.127 189.696C316.859 188.588 319.063 188.114 321.583 188.114ZM321.583 191.752C320.008 191.752 318.591 192.068 317.331 192.859C316.229 193.649 315.284 194.756 314.654 196.18C314.024 197.603 313.709 199.343 313.709 201.557C313.709 203.613 314.024 205.353 314.654 206.776C315.284 208.199 316.229 209.306 317.331 210.097C318.433 210.888 319.851 211.204 321.583 211.204C323.315 211.204 324.574 210.888 325.834 210.097C326.936 209.306 327.881 208.199 328.511 206.776C329.141 205.353 329.456 203.613 329.456 201.557C329.456 199.501 329.141 197.761 328.511 196.18C327.881 194.756 326.936 193.649 325.834 192.859C324.574 192.226 323.157 191.752 321.583 191.752Z" fill="#f0f0f0"/>
<path d="M362.05 188.43V214.526H357.012L346.934 198.078L344.415 193.491L344.572 197.761V214.684H340.793V188.43H345.674L355.752 204.878L358.271 209.623L358.114 205.353V188.43H362.05Z" fill="#f0f0f0"/>
<path d="M171.356 61.1155L167.435 54.3061L159.554 55.9377L153.046 87.4536L171.356 61.1155Z" fill="#f0f0f0"/>
<path d="M138.614 83.6669L147.646 53.7898L141.8 48.415L134.775 52.3592L138.614 83.6669Z" fill="#f0f0f0"/>
<path d="M109.967 90.5829L99.1478 61.2448L91.2524 60.6865L88.2746 68.0583L109.967 90.5829Z" fill="#f0f0f0"/>
<path d="M7.10333 132.105L87.4568 127.042L8.74413 111.234L0.233733 121.23L7.10333 132.105Z" fill="#f0f0f0"/>
<path d="M70.5926 86.0319L98.283 100.383L79.0243 76.1724L71.1223 78.1558L70.5926 86.0319Z" fill="#f0f0f0"/>
<path d="M123.327 84.8409L114.634 5.63891L102.595 0.870153L94.1633 10.7297L123.327 84.8409Z" fill="#f0f0f0"/>
</svg>
