<svg width="217" height="43" viewBox="0 0 217 43" fill="none" xmlns="http://www.w3.org/2000/svg">
<path d="M24.704 37.5V20.7H30.728C32.664 20.7 34.104 21.132 35.048 21.996C36.008 22.86 36.488 24.052 36.488 25.572C36.488 26.708 36.176 27.668 35.552 28.452C34.928 29.22 34.064 29.732 32.96 29.988C33.568 30.148 34.08 30.492 34.496 31.02C34.928 31.532 35.408 32.316 35.936 33.372L37.448 36.372C37.592 36.644 37.728 36.868 37.856 37.044C37.984 37.22 38.104 37.348 38.216 37.428V37.5H35L33.224 33.948C32.888 33.26 32.552 32.692 32.216 32.244C31.896 31.796 31.52 31.46 31.088 31.236C30.672 31.012 30.128 30.9 29.456 30.9H27.488V37.5H24.704ZM30.392 23.172H27.488V28.452H30.416C31.472 28.452 32.272 28.212 32.816 27.732C33.36 27.236 33.632 26.572 33.632 25.74C33.632 24.028 32.552 23.172 30.392 23.172ZM44.4181 37.692C43.0581 37.692 41.9381 37.436 41.0581 36.924C40.1781 36.396 39.5221 35.668 39.0901 34.74C38.6581 33.812 38.4421 32.756 38.4421 31.572C38.4421 30.356 38.6741 29.276 39.1381 28.332C39.6181 27.388 40.2901 26.652 41.1541 26.124C42.0341 25.58 43.0661 25.308 44.2501 25.308C45.9621 25.308 47.3141 25.836 48.3061 26.892C49.2981 27.932 49.7941 29.436 49.7941 31.404V32.388H41.0581C41.1861 33.252 41.5061 33.972 42.0181 34.548C42.5301 35.108 43.3221 35.388 44.3941 35.388C45.1301 35.388 45.6901 35.236 46.0741 34.932C46.4741 34.628 46.7941 34.204 47.0341 33.66L47.0581 33.516L49.5781 34.236L49.5061 34.404C48.5781 36.596 46.8821 37.692 44.4181 37.692ZM44.2261 27.588C43.3621 27.588 42.6661 27.836 42.1381 28.332C41.6261 28.828 41.2901 29.492 41.1301 30.324H47.1781C47.0661 29.332 46.7541 28.628 46.2421 28.212C45.7461 27.796 45.0741 27.588 44.2261 27.588ZM57.6609 42.948C56.2529 42.948 55.0609 42.644 54.0849 42.036C53.1249 41.444 52.4129 40.5 51.9489 39.204L54.7809 38.316C55.0049 38.988 55.3329 39.516 55.7649 39.9C56.2129 40.284 56.8529 40.476 57.6849 40.476C58.6289 40.476 59.3569 40.196 59.8689 39.636C60.3809 39.076 60.6369 38.316 60.6369 37.356V36.18C60.6369 36.004 60.6369 35.868 60.6369 35.772C60.6369 35.66 60.6449 35.572 60.6609 35.508H60.6129C60.3569 36.18 59.9169 36.708 59.2929 37.092C58.6849 37.46 57.9329 37.644 57.0369 37.644C55.9009 37.644 54.9329 37.38 54.1329 36.852C53.3329 36.308 52.7249 35.572 52.3089 34.644C51.8929 33.7 51.6849 32.636 51.6849 31.452C51.6849 30.3 51.9169 29.26 52.3809 28.332C52.8449 27.404 53.4769 26.676 54.2769 26.148C55.0769 25.604 55.9809 25.332 56.9889 25.332C58.7809 25.332 59.9809 25.94 60.5889 27.156H60.6609C60.6449 27.044 60.6369 26.636 60.6369 25.932V25.5H63.3729V37.284C63.3729 38.42 63.1409 39.412 62.6769 40.26C62.2129 41.108 61.5569 41.764 60.7089 42.228C59.8609 42.708 58.8449 42.948 57.6609 42.948ZM57.5649 35.22C58.6369 35.22 59.4369 34.876 59.9649 34.188C60.5089 33.5 60.7809 32.596 60.7809 31.476C60.7809 30.324 60.5089 29.412 59.9649 28.74C59.4369 28.068 58.6529 27.732 57.6129 27.732C56.5889 27.732 55.8049 28.068 55.2609 28.74C54.7169 29.412 54.4449 30.324 54.4449 31.476C54.4449 32.596 54.7009 33.5 55.2129 34.188C55.7409 34.876 56.5249 35.22 57.5649 35.22ZM71.6994 37.692C70.3394 37.692 69.2194 37.436 68.3394 36.924C67.4594 36.396 66.8034 35.668 66.3714 34.74C65.9394 33.812 65.7234 32.756 65.7234 31.572C65.7234 30.356 65.9554 29.276 66.4194 28.332C66.8994 27.388 67.5714 26.652 68.4354 26.124C69.3154 25.58 70.3474 25.308 71.5314 25.308C73.2434 25.308 74.5954 25.836 75.5874 26.892C76.5794 27.932 77.0754 29.436 77.0754 31.404V32.388H68.3394C68.4674 33.252 68.7874 33.972 69.2994 34.548C69.8114 35.108 70.6034 35.388 71.6754 35.388C72.4114 35.388 72.9714 35.236 73.3554 34.932C73.7554 34.628 74.0754 34.204 74.3154 33.66L74.3394 33.516L76.8594 34.236L76.7874 34.404C75.8594 36.596 74.1634 37.692 71.6994 37.692ZM71.5074 27.588C70.6434 27.588 69.9474 27.836 69.4194 28.332C68.9074 28.828 68.5714 29.492 68.4114 30.324H74.4594C74.3474 29.332 74.0354 28.628 73.5234 28.212C73.0274 27.796 72.3554 27.588 71.5074 27.588ZM82.2569 27.204C82.5769 26.516 83.0329 26.028 83.6249 25.74C84.2329 25.436 84.9129 25.284 85.6649 25.284C87.1049 25.284 88.1689 25.716 88.8569 26.58C89.5609 27.444 89.9129 28.612 89.9129 30.084V37.5H87.1289V30.54C87.1289 29.628 86.9529 28.924 86.6009 28.428C86.2489 27.932 85.6329 27.684 84.7529 27.684C83.0729 27.684 82.2329 28.676 82.2329 30.66V37.5H79.4729V25.5H82.2089V25.908C82.2089 26.388 82.2009 26.708 82.1849 26.868C82.1849 27.028 82.1849 27.14 82.1849 27.204H82.2569ZM98.3915 37.5V20.7H109.096V23.196H101.2V27.876H106.696V30.372H101.2V37.5H98.3915ZM114.776 37.692C113.48 37.692 112.392 37.428 111.512 36.9C110.632 36.372 109.968 35.644 109.52 34.716C109.088 33.772 108.872 32.7 108.872 31.5C108.872 30.3 109.112 29.236 109.592 28.308C110.088 27.364 110.784 26.628 111.68 26.1C112.576 25.572 113.624 25.308 114.824 25.308C116.072 25.308 117.136 25.572 118.016 26.1C118.896 26.628 119.568 27.364 120.032 28.308C120.512 29.236 120.752 30.3 120.752 31.5C120.752 32.7 120.512 33.764 120.032 34.692C119.552 35.62 118.864 36.356 117.968 36.9C117.072 37.428 116.008 37.692 114.776 37.692ZM114.776 35.22C115.848 35.22 116.648 34.884 117.176 34.212C117.72 33.524 117.992 32.62 117.992 31.5C117.992 30.348 117.72 29.428 117.176 28.74C116.648 28.052 115.864 27.708 114.824 27.708C113.784 27.708 112.992 28.052 112.448 28.74C111.904 29.428 111.632 30.348 111.632 31.5C111.632 32.636 111.896 33.54 112.424 34.212C112.952 34.884 113.736 35.22 114.776 35.22ZM127.169 37.716C125.761 37.716 124.713 37.292 124.025 36.444C123.353 35.58 123.017 34.412 123.017 32.94V25.5H125.801V32.556C125.801 33.484 125.977 34.196 126.329 34.692C126.681 35.172 127.273 35.412 128.105 35.412C129.721 35.412 130.529 34.42 130.529 32.436V25.5H133.289V37.5H130.553V37.116C130.553 36.684 130.553 36.396 130.553 36.252C130.569 36.108 130.577 36.004 130.577 35.94H130.505C130.201 36.612 129.745 37.076 129.137 37.332C128.545 37.588 127.889 37.716 127.169 37.716ZM139.093 27.204C139.413 26.516 139.869 26.028 140.461 25.74C141.069 25.436 141.749 25.284 142.501 25.284C143.941 25.284 145.005 25.716 145.693 26.58C146.397 27.444 146.749 28.612 146.749 30.084V37.5H143.965V30.54C143.965 29.628 143.789 28.924 143.437 28.428C143.085 27.932 142.469 27.684 141.589 27.684C139.909 27.684 139.069 28.676 139.069 30.66V37.5H136.309V25.5H139.045V25.908C139.045 26.388 139.037 26.708 139.021 26.868C139.021 27.028 139.021 27.14 139.021 27.204H139.093ZM154.373 37.668C153.237 37.668 152.269 37.412 151.469 36.9C150.669 36.372 150.061 35.644 149.645 34.716C149.229 33.772 149.021 32.692 149.021 31.476C149.021 30.308 149.253 29.26 149.717 28.332C150.181 27.404 150.813 26.676 151.613 26.148C152.413 25.604 153.325 25.332 154.349 25.332C156.125 25.332 157.309 25.924 157.901 27.108H157.973C157.973 27.028 157.965 26.908 157.949 26.748C157.949 26.588 157.949 26.276 157.949 25.812V19.74H160.709V37.5H157.973V36.348C157.973 36.172 157.973 36.036 157.973 35.94C157.973 35.828 157.981 35.732 157.997 35.652H157.925C157.621 36.34 157.165 36.852 156.557 37.188C155.965 37.508 155.237 37.668 154.373 37.668ZM154.901 35.244C155.973 35.244 156.773 34.9 157.301 34.212C157.845 33.524 158.117 32.62 158.117 31.5C158.117 30.348 157.845 29.428 157.301 28.74C156.773 28.052 155.989 27.708 154.949 27.708C153.925 27.708 153.141 28.052 152.597 28.74C152.053 29.428 151.781 30.348 151.781 31.5C151.781 32.636 152.045 33.548 152.573 34.236C153.101 34.908 153.877 35.244 154.901 35.244ZM166.782 37.692C165.614 37.692 164.702 37.412 164.046 36.852C163.406 36.276 163.086 35.508 163.086 34.548C163.086 33.444 163.406 32.612 164.046 32.052C164.686 31.476 165.558 31.06 166.662 30.804L168.174 30.42C168.846 30.26 169.326 30.1 169.614 29.94C169.902 29.764 170.046 29.492 170.046 29.124C170.046 28.708 169.886 28.348 169.566 28.044C169.246 27.74 168.742 27.588 168.054 27.588C167.35 27.588 166.782 27.764 166.35 28.116C165.918 28.452 165.654 28.996 165.558 29.748V29.844L162.99 29.412C163.214 28.084 163.766 27.068 164.646 26.364C165.526 25.66 166.67 25.308 168.078 25.308C169.534 25.308 170.662 25.692 171.462 26.46C172.278 27.212 172.686 28.252 172.686 29.58V34.5C172.686 35.3 172.766 35.932 172.926 36.396C173.086 36.844 173.334 37.172 173.67 37.38V37.5H170.886C170.454 37.228 170.23 36.692 170.214 35.892V35.868H170.166C169.926 36.412 169.518 36.852 168.942 37.188C168.366 37.524 167.646 37.692 166.782 37.692ZM167.358 35.508C168.43 35.508 169.23 35.084 169.758 34.236C170.03 33.82 170.166 33.284 170.166 32.628V31.524C170.054 31.716 169.862 31.868 169.59 31.98C169.318 32.092 168.974 32.196 168.558 32.292L167.262 32.628C166.238 32.9 165.726 33.428 165.726 34.212C165.726 34.612 165.87 34.932 166.158 35.172C166.446 35.396 166.846 35.508 167.358 35.508ZM182.076 37.5H179.316C178.404 37.5 177.724 37.252 177.276 36.756C176.828 36.26 176.604 35.444 176.604 34.308V27.876H174.204V25.5H175.956C176.228 25.5 176.412 25.516 176.508 25.548C176.604 25.564 176.66 25.572 176.676 25.572C176.708 25.572 176.724 25.556 176.724 25.524C176.724 25.492 176.716 25.428 176.7 25.332C176.684 25.22 176.676 25.036 176.676 24.78V20.7H179.244V25.5H182.028V27.876H179.244V33.996C179.244 34.444 179.324 34.764 179.484 34.956C179.66 35.132 179.956 35.22 180.372 35.22H182.076V37.5ZM185.748 23.46C185.188 23.46 184.732 23.292 184.38 22.956C184.028 22.604 183.852 22.156 183.852 21.612C183.852 21.052 184.028 20.604 184.38 20.268C184.732 19.916 185.188 19.74 185.748 19.74C186.308 19.74 186.756 19.916 187.092 20.268C187.444 20.604 187.62 21.052 187.62 21.612C187.62 22.156 187.444 22.604 187.092 22.956C186.756 23.292 186.308 23.46 185.748 23.46ZM184.356 37.5V25.5H187.116V37.5H184.356ZM195.401 37.692C194.105 37.692 193.017 37.428 192.137 36.9C191.257 36.372 190.593 35.644 190.145 34.716C189.713 33.772 189.497 32.7 189.497 31.5C189.497 30.3 189.737 29.236 190.217 28.308C190.713 27.364 191.409 26.628 192.305 26.1C193.201 25.572 194.249 25.308 195.449 25.308C196.697 25.308 197.761 25.572 198.641 26.1C199.521 26.628 200.193 27.364 200.657 28.308C201.137 29.236 201.377 30.3 201.377 31.5C201.377 32.7 201.137 33.764 200.657 34.692C200.177 35.62 199.489 36.356 198.593 36.9C197.697 37.428 196.633 37.692 195.401 37.692ZM195.401 35.22C196.473 35.22 197.273 34.884 197.801 34.212C198.345 33.524 198.617 32.62 198.617 31.5C198.617 30.348 198.345 29.428 197.801 28.74C197.273 28.052 196.489 27.708 195.449 27.708C194.409 27.708 193.617 28.052 193.073 28.74C192.529 29.428 192.257 30.348 192.257 31.5C192.257 32.636 192.521 33.54 193.049 34.212C193.577 34.884 194.361 35.22 195.401 35.22ZM206.546 27.204C206.866 26.516 207.322 26.028 207.914 25.74C208.522 25.436 209.202 25.284 209.954 25.284C211.394 25.284 212.458 25.716 213.146 26.58C213.85 27.444 214.202 28.612 214.202 30.084V37.5H211.418V30.54C211.418 29.628 211.242 28.924 210.89 28.428C210.538 27.932 209.922 27.684 209.042 27.684C207.362 27.684 206.522 28.676 206.522 30.66V37.5H203.762V25.5H206.498V25.908C206.498 26.388 206.49 26.708 206.474 26.868C206.474 27.028 206.474 27.14 206.474 27.204H206.546Z" fill="#1B1B1B"/>
<path d="M21.4242 0.0912096C21.9442 0.561689 23.5816 0.782194 23.7949 1.4058L25.0034 16.8666L19.7169 2.21731C19.6787 1.76494 21.0872 0.513258 21.4253 0.0905619L21.4242 0.0912096Z" fill="#1B1B1B"/>
<path d="M2.14554 25.3942L0.797708 23.0804C1.48043 22.4977 1.8915 21.5974 2.73941 21.2126L17.7148 24.9672L2.14618 25.3953L2.14554 25.3942Z" fill="#1B1B1B"/>
<path d="M30.9004 17.5027C30.6666 17.4296 30.9101 16.6201 30.949 16.4256C31.2652 14.8347 31.8378 13.2215 32.0745 11.6018C32.3548 11.0478 33.2643 11.3504 33.7552 11.0834L34.5147 12.6892L30.901 17.5038L30.9004 17.5027Z" fill="#1B1B1B"/>
<path d="M22.321 17.6669C22.0866 17.7379 21.9307 17.5196 21.7814 17.3829C20.9003 16.5671 20.0425 15.3846 19.2414 14.4688C18.2937 13.3847 17.8044 13.5714 18.8138 11.9395L20.5504 12.0443L22.3192 17.6664L22.321 17.6669Z" fill="#1B1B1B"/>
<path d="M28.7046 14.6381C28.5159 15.1901 28.3832 15.7949 28.1904 16.3448C28.1492 16.4628 28.0182 16.7854 27.9118 16.4637L27.3619 10.8143C27.1968 10.3365 28.4324 9.87152 28.7284 9.85027C29.0245 9.82902 29.9011 10.7357 29.9323 11.023C29.9656 11.327 28.8969 14.0796 28.7064 14.6386L28.7046 14.6381Z" fill="#1B1B1B"/>
<path d="M19.6159 19.6302L14.7068 16.8793C14.4598 15.4639 15.0582 14.5797 16.5472 14.9786L20.0029 19.6058L19.6166 19.6313L19.6159 19.6302Z" fill="#1B1B1B"/>
</svg>
